<svg width="760" height="470" viewBox="0 0 760 470" fill="none" xmlns="http://www.w3.org/2000/svg">
<rect width="760" height="470" fill="none"/>
<circle cx="96" cy="348" r="118" fill="#DCEBFF" opacity=".85"/>
<g opacity=".7"><circle cx="610" cy="86" r="3" fill="#AFC7F3"/><circle cx="635" cy="86" r="3" fill="#AFC7F3"/><circle cx="660" cy="86" r="3" fill="#AFC7F3"/><circle cx="685" cy="86" r="3" fill="#AFC7F3"/><circle cx="610" cy="112" r="3" fill="#AFC7F3"/><circle cx="635" cy="112" r="3" fill="#AFC7F3"/><circle cx="660" cy="112" r="3" fill="#AFC7F3"/><circle cx="685" cy="112" r="3" fill="#AFC7F3"/><circle cx="610" cy="138" r="3" fill="#AFC7F3"/><circle cx="635" cy="138" r="3" fill="#AFC7F3"/><circle cx="660" cy="138" r="3" fill="#AFC7F3"/><circle cx="685" cy="138" r="3" fill="#AFC7F3"/></g>
<g filter="url(#s)"><rect x="140" y="78" width="530" height="275" rx="18" fill="white"/><path d="M140 96c0-10 8-18 18-18h60v275h-60c-10 0-18-8-18-18V96z" fill="#173F8E"/><rect x="165" y="105" width="42" height="10" rx="5" fill="white"/><rect x="165" y="140" width="47" height="10" rx="5" fill="#88AAE8"/><rect x="165" y="174" width="47" height="10" rx="5" fill="#88AAE8"/><rect x="165" y="208" width="47" height="10" rx="5" fill="#88AAE8"/><rect x="165" y="242" width="47" height="10" rx="5" fill="#88AAE8"/>
<rect x="250" y="114" width="148" height="78" rx="14" fill="#fff" stroke="#E1EAF7"/><rect x="418" y="114" width="148" height="78" rx="14" fill="#fff" stroke="#E1EAF7"/><rect x="586" y="114" width="148" height="78" rx="14" fill="#fff" stroke="#E1EAF7"/>
<text x="274" y="147" font-family="Arial" font-size="25" font-weight="800" fill="#0F172A">1,250</text><text x="274" y="176" font-family="Arial" font-size="18" fill="#667085">Leads</text><text x="442" y="147" font-family="Arial" font-size="25" font-weight="800" fill="#0F172A">850</text><text x="442" y="176" font-family="Arial" font-size="18" fill="#667085">Deals</text><text x="610" y="147" font-family="Arial" font-size="25" font-weight="800" fill="#0F172A">$24.5k</text><text x="610" y="176" font-family="Arial" font-size="18" fill="#667085">Revenue</text>
<rect x="250" y="220" width="330" height="118" rx="15" fill="#fff" stroke="#E1EAF7"/><text x="272" y="252" font-family="Arial" font-size="17" fill="#475467">Sales Overview</text><line x1="275" y1="306" x2="405" y2="280" stroke="#5B9CFF" stroke-width="5" stroke-linecap="round"/><line x1="405" y1="280" x2="555" y2="320" stroke="#1E63E9" stroke-width="5" stroke-linecap="round"/>
<rect x="600" y="220" width="120" height="118" rx="15" fill="#fff" stroke="#E1EAF7"/><text x="620" y="252" font-family="Arial" font-size="17" fill="#475467">Activities</text><circle cx="632" cy="286" r="16" fill="#DCEBFF"/><rect x="660" y="278" width="58" height="9" rx="4.5" fill="#CBDCF7"/><rect x="660" y="296" width="46" height="8" rx="4" fill="#D9E7FB"/><circle cx="632" cy="326" r="16" fill="#DCEBFF"/><rect x="660" y="318" width="58" height="9" rx="4.5" fill="#CBDCF7"/><rect x="660" y="336" width="46" height="8" rx="4" fill="#D9E7FB"/></g>
<g><path d="M88 388C61 360 42 345 18 344c10 30 32 53 69 67l1-23z" fill="#5A91F2"/><path d="M116 392c12-51-10-74-26-100-24 39-18 80 19 120l7-20z" fill="#8EBBFF"/><path d="M126 401c28-30 50-45 77-36-7 29-32 51-72 62l-5-26z" fill="#5A91F2"/><rect x="78" y="410" width="74" height="56" rx="15" fill="white"/></g>
<g><rect x="340" y="378" width="275" height="15" rx="7.5" fill="#B7D2FF"/><rect x="392" y="322" width="8" height="94" rx="4" fill="#173B78" transform="rotate(8 392 322)"/><rect x="532" y="322" width="8" height="94" rx="4" fill="#173B78" transform="rotate(-8 532 322)"/><rect x="450" y="310" width="110" height="70" rx="8" fill="#EFF5FF" stroke="#173B78" stroke-width="3"/><rect x="468" y="328" width="70" height="8" rx="4" fill="#C7DAF7"/><rect x="468" y="348" width="60" height="8" rx="4" fill="#C7DAF7"/><rect x="468" y="368" width="50" height="8" rx="4" fill="#C7DAF7"/>
<circle cx="590" cy="260" r="32" fill="#0C2D5D"/><path d="M546 307c0-31 25-56 56-56h8c31 0 56 25 56 56v73H546v-73z" fill="url(#b)"/><rect x="520" y="330" width="116" height="22" rx="11" fill="#4D89F6" transform="rotate(-18 520 330)"/><rect x="640" y="350" width="84" height="84" rx="20" fill="#255FCB"/><rect x="662" y="425" width="24" height="46" rx="12" fill="#123264" transform="rotate(10 662 425)"/><rect x="712" y="425" width="24" height="46" rx="12" fill="#123264" transform="rotate(-10 712 425)"/></g>
<defs><filter id="s" x="122" y="60" width="632" height="316" filterUnits="userSpaceOnUse"><feDropShadow dx="0" dy="18" stdDeviation="16" flood-color="#2A5CA8" flood-opacity=".12"/></filter><linearGradient id="b" x1="546" y1="251" x2="666" y2="380" gradientUnits="userSpaceOnUse"><stop stop-color="#4F8CFF"/><stop offset="1" stop-color="#1C5EE4"/></linearGradient></defs>
</svg>