<svg width="820" height="520" viewBox="0 0 820 520" fill="none" xmlns="http://www.w3.org/2000/svg">
<rect width="820" height="520" fill="none"/>
<ellipse cx="129" cy="392" rx="132" ry="139" fill="#DCEBFF" opacity="0.8"/>
<g opacity="0.65"><circle cx="665" cy="100" r="3" fill="#A8C1F0"/><circle cx="692" cy="100" r="3" fill="#A8C1F0"/><circle cx="719" cy="100" r="3" fill="#A8C1F0"/><circle cx="746" cy="100" r="3" fill="#A8C1F0"/><circle cx="665" cy="128" r="3" fill="#A8C1F0"/><circle cx="692" cy="128" r="3" fill="#A8C1F0"/><circle cx="719" cy="128" r="3" fill="#A8C1F0"/><circle cx="746" cy="128" r="3" fill="#A8C1F0"/><circle cx="665" cy="156" r="3" fill="#A8C1F0"/><circle cx="692" cy="156" r="3" fill="#A8C1F0"/><circle cx="719" cy="156" r="3" fill="#A8C1F0"/><circle cx="746" cy="156" r="3" fill="#A8C1F0"/></g>
<g filter="url(#cardShadow)">
<rect x="154" y="84" width="560" height="300" rx="20" fill="white"/>
<path d="M154 104C154 93 163 84 174 84H238V384H174C163 384 154 375 154 364V104Z" fill="#173F8E"/>
<rect x="181" y="113" width="44" height="11" rx="5.5" fill="white"/>
<rect x="181" y="151" width="50" height="11" rx="5.5" fill="#88AAE8"/><rect x="181" y="188" width="50" height="11" rx="5.5" fill="#88AAE8"/><rect x="181" y="225" width="50" height="11" rx="5.5" fill="#88AAE8"/><rect x="181" y="262" width="50" height="11" rx="5.5" fill="#88AAE8"/>
<rect x="270" y="120" width="154" height="84" rx="15" fill="#fff" stroke="#E1EAF7"/><rect x="446" y="120" width="154" height="84" rx="15" fill="#fff" stroke="#E1EAF7"/><rect x="622" y="120" width="154" height="84" rx="15" fill="#fff" stroke="#E1EAF7"/>
<text x="295" y="154" font-family="Arial" font-size="27" font-weight="800" fill="#0F172A">1,250</text><text x="295" y="185" font-family="Arial" font-size="18" fill="#667085">Leads</text><text x="471" y="154" font-family="Arial" font-size="27" font-weight="800" fill="#0F172A">850</text><text x="471" y="185" font-family="Arial" font-size="18" fill="#667085">Deals</text><text x="647" y="154" font-family="Arial" font-size="27" font-weight="800" fill="#0F172A">$24.5k</text><text x="647" y="185" font-family="Arial" font-size="18" fill="#667085">Revenue</text>
<rect x="270" y="238" width="330" height="128" rx="16" fill="#fff" stroke="#E1EAF7"/><text x="294" y="272" font-family="Arial" font-size="17" fill="#475467">Sales Overview</text><path d="M298 326C342 314 378 303 425 292C472 314 510 328 570 336" stroke="#1E63E9" stroke-width="5" stroke-linecap="round"/><path d="M298 342C352 332 408 322 460 312" stroke="#5B9CFF" stroke-width="5" stroke-linecap="round"/>
<rect x="620" y="238" width="136" height="128" rx="16" fill="#fff" stroke="#E1EAF7"/><text x="642" y="272" font-family="Arial" font-size="17" fill="#475467">Activities</text><circle cx="656" cy="308" r="17" fill="#DCEBFF"/><rect x="688" y="298" width="56" height="9" rx="4.5" fill="#C8DAF5"/><rect x="688" y="318" width="42" height="8" rx="4" fill="#DCE8FB"/><circle cx="656" cy="350" r="17" fill="#DCEBFF"/><rect x="688" y="340" width="56" height="9" rx="4.5" fill="#C8DAF5"/><rect x="688" y="360" width="42" height="8" rx="4" fill="#DCE8FB"/>
</g>
<g><path d="M93 429C62 397 40 380 12 379C23 413 49 440 91 454L93 429Z" fill="#5A91F2"/><path d="M126 431C140 374 115 348 98 318C70 362 78 409 118 455L126 431Z" fill="#8EBBFF"/><path d="M139 442C171 407 198 391 226 402C217 434 189 460 144 472L139 442Z" fill="#5A91F2"/><rect x="82" y="454" width="82" height="58" rx="16" fill="white"/></g>
<g><rect x="355" y="415" width="292" height="16" rx="8" fill="#B7D2FF"/><rect x="410" y="352" width="8" height="104" rx="4" fill="#173B78" transform="rotate(8 410 352)"/><rect x="555" y="352" width="8" height="104" rx="4" fill="#173B78" transform="rotate(-8 555 352)"/><rect x="472" y="340" width="116" height="74" rx="8" fill="#EFF5FF" stroke="#173B78" stroke-width="3"/><rect x="491" y="359" width="74" height="8" rx="4" fill="#C7DAF7"/><rect x="491" y="381" width="64" height="8" rx="4" fill="#C7DAF7"/><rect x="491" y="401" width="52" height="8" rx="4" fill="#C7DAF7"/><circle cx="618" cy="282" r="35" fill="#0C2D5D"/><path d="M570 334C570 300 598 272 632 272H640C674 272 702 300 702 334V415H570V334Z" fill="url(#body)"/><rect x="538" y="360" width="130" height="24" rx="12" fill="#4D89F6" transform="rotate(-18 538 360)"/><rect x="674" y="382" width="88" height="92" rx="21" fill="#255FCB"/><rect x="697" y="466" width="26" height="40" rx="13" fill="#123264" transform="rotate(10 697 466)"/><rect x="748" y="466" width="26" height="40" rx="13" fill="#123264" transform="rotate(-10 748 466)"/></g>
<defs><filter id="cardShadow" x="128" y="58" width="674" height="352" filterUnits="userSpaceOnUse"><feDropShadow dx="0" dy="18" stdDeviation="18" flood-color="#2A5CA8" flood-opacity="0.12"/></filter><linearGradient id="body" x1="570" y1="272" x2="702" y2="415" gradientUnits="userSpaceOnUse"><stop stop-color="#4F8CFF"/><stop offset="1" stop-color="#1C5EE4"/></linearGradient></defs>
</svg>