<svg xmlns="http://www.w3.org/2000/svg" width="451" height="104" viewBox="0 0 451 104" fill="none">
  <rect width="451" height="104" fill="transparent"/>
  <defs>
    <linearGradient id="orange" x1="0" y1="10" x2="92" y2="96" gradientUnits="userSpaceOnUse">
      <stop stop-color="#ff7a00"/>
      <stop offset="1" stop-color="#ff5b00"/>
    </linearGradient>
  </defs>
  <g transform="translate(7 8)">
    <path d="M43.6 0.8C49.2 -1.7 55.9 0.6 58.8 6L67.1 21.1C70 26.4 68.1 33.2 62.9 36.4L28.8 57.5C23.5 60.8 16.6 59.4 13 54.3L3.4 40.8C-0.5 35.4 1 27.8 6.5 24L43.6 0.8Z" fill="url(#orange)"/>
    <path d="M53.4 89.5C47.8 92 41.1 89.7 38.2 84.3L29.9 69.2C27 63.9 28.9 57.1 34.1 53.9L68.2 32.8C73.5 29.5 80.4 30.9 84 36L93.6 49.5C97.5 54.9 96 62.5 90.5 66.3L53.4 89.5Z" fill="url(#orange)"/>
    <rect x="25" y="39" width="47" height="17" rx="8.5" transform="rotate(-38 25 39)" fill="white"/>
    <rect x="22" y="49" width="53" height="16" rx="8" transform="rotate(38 22 49)" fill="url(#orange)"/>
  </g>
  <text x="112" y="66" font-family="Inter, Arial Black, Arial, Helvetica, sans-serif" font-size="50" font-weight="900" letter-spacing="-3.5" fill="#ffffff">Sales</text>
  <text x="250" y="66" font-family="Inter, Arial Black, Arial, Helvetica, sans-serif" font-size="50" font-weight="900" letter-spacing="-3.5" fill="#ff6508">Flow</text>
  <text x="362" y="91" font-family="Inter, Arial, Helvetica, sans-serif" font-size="17" font-weight="900" letter-spacing="8" fill="#ffffff">HUB</text>
</svg>
